<svg xmlns="http://www.w3.org/2000/svg" viewBox="0 0 1200 630" width="1200" height="630">
  <defs>
    <clipPath id="logo-l"><rect x="0" y="0" width="60" height="120"/></clipPath>
    <clipPath id="logo-r"><rect x="60" y="0" width="60" height="120"/></clipPath>
  </defs>

  <!-- Background -->
  <rect width="1200" height="630" fill="#1B2A4A"/>

  <!-- Grid pattern -->
  <g opacity="0.05">
    <line x1="0" y1="0" x2="0" y2="630" stroke="white" stroke-width="1" />
    <line x1="40" y1="0" x2="40" y2="630" stroke="white" stroke-width="1" />
    <line x1="80" y1="0" x2="80" y2="630" stroke="white" stroke-width="1" />
    <line x1="120" y1="0" x2="120" y2="630" stroke="white" stroke-width="1" />
    <line x1="160" y1="0" x2="160" y2="630" stroke="white" stroke-width="1" />
    <line x1="200" y1="0" x2="200" y2="630" stroke="white" stroke-width="1" />
    <line x1="240" y1="0" x2="240" y2="630" stroke="white" stroke-width="1" />
    <line x1="280" y1="0" x2="280" y2="630" stroke="white" stroke-width="1" />
    <line x1="320" y1="0" x2="320" y2="630" stroke="white" stroke-width="1" />
    <line x1="360" y1="0" x2="360" y2="630" stroke="white" stroke-width="1" />
    <line x1="400" y1="0" x2="400" y2="630" stroke="white" stroke-width="1" />
    <line x1="440" y1="0" x2="440" y2="630" stroke="white" stroke-width="1" />
    <line x1="480" y1="0" x2="480" y2="630" stroke="white" stroke-width="1" />
    <line x1="520" y1="0" x2="520" y2="630" stroke="white" stroke-width="1" />
    <line x1="560" y1="0" x2="560" y2="630" stroke="white" stroke-width="1" />
    <line x1="600" y1="0" x2="600" y2="630" stroke="white" stroke-width="1" />
  </g>

  <!-- Logo (centered, scaled via nested svg) -->
  <rect x="510" y="130" width="180" height="180" rx="30" fill="#1B2A4A" stroke="white" stroke-opacity="0.15" stroke-width="2"/>
  <svg x="510" y="130" width="180" height="180" viewBox="0 0 120 120">
    <g clip-path="url(#logo-l)" transform="translate(-3, -3)">
      <text x="60" y="82" font-family="Georgia, 'Times New Roman', serif" font-size="72" font-weight="700" fill="white" text-anchor="middle">§</text>
    </g>
    <g clip-path="url(#logo-r)" transform="translate(3, 3)">
      <text x="60" y="82" font-family="Georgia, 'Times New Roman', serif" font-size="72" font-weight="700" fill="#4ADE80" text-anchor="middle">§</text>
    </g>
  </svg>

  <!-- Title -->
  <text x="600" y="410" font-family="system-ui, -apple-system, sans-serif" font-size="48" font-weight="700" fill="white" text-anchor="middle">Paragraf</text>

  <!-- Subtitle -->
  <text x="600" y="460" font-family="system-ui, -apple-system, sans-serif" font-size="24" fill="white" fill-opacity="0.7" text-anchor="middle">Norsk lov for KI</text>

  <!-- Stats bar -->
  <text x="600" y="520" font-family="system-ui, -apple-system, sans-serif" font-size="18" fill="white" fill-opacity="0.4" text-anchor="middle">770 lover · 3 600 forskrifter · 92 000 paragrafer</text>
</svg>
